<?xml version="1.0" encoding="UTF-8"?><svg id="Layer_2" xmlns="http://www.w3.org/2000/svg" width="434.19" height="180.17" viewBox="0 0 434.19 180.17"><g id="Layer_1_1:1_"><path d="M158.36,57.12c-4.29,0-8.31,1-12.08,3-3.76,2-6.98,4.74-9.65,8.22-.16.2-.3.41-.45.62l-.69-10.27h-26.87v76.46h29.01v-35.44c0-1.91.24-3.57.71-5,.48-1.43,1.17-2.67,2.07-3.72.9-1.05,2.05-1.83,3.43-2.36,1.38-.52,2.93-.79,4.65-.79,2.38,0,4.6.29,6.65.86,2.05.57,3.55,1.19,4.5,1.86l8-32.16c-1.43-.38-2.91-.69-4.43-.93-1.53-.24-3.14-.36-4.86-.36Z" style="fill:currentColor;"/><path d="M40.16,35.11L0,135.15h30.01l5.44-14.86h32.85l5.44,14.86h30.58l-39.88-100.04h-24.3ZM43.14,99.28l2.88-7.86c1.05-2.95,1.98-5.48,2.79-7.58.81-2.09,1.52-4.07,2.14-5.93.36-1.09.72-2.25,1.06-3.44.34,1.19.67,2.35,1.01,3.44.57,1.86,1.24,3.84,2,5.93.76,2.1,1.67,4.62,2.72,7.58l2.88,7.86h-17.47Z" style="fill:currentColor;"/><polygon points="273.73 48.89 288.36 28.89 292.34 0 273.73 20 255.12 0 259.11 28.89 273.73 48.89" style="fill:currentColor;"/><polygon points="403.32 58.69 393.6 98.08 381.31 67.98 364.45 67.98 353.49 97.87 343.73 58.69 312.85 58.69 337.44 135.15 359.45 135.15 373.16 100.45 386.03 135.15 408.04 135.15 434.19 58.69 403.32 58.69" style="fill:currentColor;"/><path d="M295.78,62.26c-6.43-3.43-13.79-5.15-22.08-5.15s-15.67,1.71-22.15,5.15c-6.48,3.43-11.58,8.12-15.29,14.08-3.72,5.96-5.57,12.79-5.57,20.51s1.86,14.56,5.57,20.51c3.72,5.96,8.81,10.65,15.29,14.08,6.48,3.43,13.86,5.14,22.15,5.14s15.65-1.71,22.08-5.14c6.43-3.43,11.48-8.12,15.15-14.08,3.67-5.95,5.5-12.79,5.5-20.51s-1.84-14.55-5.5-20.51c-3.67-5.95-8.72-10.65-15.15-14.08ZM285.41,104.78c-1.14,2.34-2.74,4.17-4.79,5.5-2.05,1.33-4.36,2-6.93,2s-5.03-.67-7.07-2c-2.05-1.33-3.67-3.17-4.86-5.5-1.19-2.33-1.79-4.98-1.79-7.93s.59-5.74,1.79-8.07c1.19-2.33,2.81-4.17,4.86-5.5,2.05-1.33,4.41-2,7.07-2s4.88.67,6.93,2c2.05,1.33,3.64,3.17,4.79,5.5,1.14,2.34,1.72,5.03,1.72,8.07s-.57,5.6-1.72,7.93Z" style="fill:currentColor;"/><path d="M227.24,57.47c-1.53-.24-3.14-.36-4.86-.36-4.29,0-8.31,1-12.08,3-3.76,2-6.98,4.74-9.65,8.22-.16.2-.3.41-.45.62l-.69-10.27h-26.87v76.46h29.01v-35.44c0-1.91.24-3.57.71-5,.48-1.43,1.17-2.67,2.07-3.72.9-1.05,2.05-1.83,3.43-2.36,1.38-.52,2.93-.79,4.65-.79,2.38,0,4.6.29,6.65.86,2.05.57,3.55,1.19,4.5,1.86l8-32.16c-1.43-.38-2.91-.69-4.43-.93Z" style="fill:currentColor;"/><polygon points="253.48 144.03 273.73 180.17 293.99 144.03 273.73 151.86 253.48 144.03" style="fill:currentColor;"/></g></svg>
